# xmcd
# 
# Track frame offsets:
#     150
#     15795
#     28404
#     47194
#     66052
#     79482
#     103787
#     118018
#     131997
#     144848
#     168032
#     184993
#     203110
#     225724
#     238902
#     256807
#     271125
#     289032
# 
# Disc length: 4287
# 
# Revision: 1
# Processed by: cddbd v1.5.2PL0 Copyright (c) Steve Scherf et al.
# Submitted via: fre:ac v1.0.31
# 
DISCID=0210bd12
DTITLE=Kris Kristofferson - Full Moon
DYEAR=1973
DGENRE=Country
TTITLE0=HARD TO BE FRIENDS
TTITLE1=IT'S ALL OVER [ALL OVER AGAIN]
TTITLE2=I NEVER HAD IT SO GOOD
TTITLE3=FROM THE BOTTLE TO THE BOTTOM
TTITLE4=TAKE TIME TO LOVE
TTITLE5=TENNESSEE BLUES
TTITLE6=PART OF YOUR LIFE
TTITLE7=I'M DOWN (BUT I KEEP FALLING)
TTITLE8=I HEARD THE BLUEBIRDS SING
TTITLE9=AFTER THE FACT
TTITLE10=LOVING ARMS
TTITLE11=SONG I'D LIKE TO SING
TTITLE12=HOBO'S LULLABY
TTITLE13=LOST IN AUSTIN
TTITLE14=OUR CHILD WILL BE BORN
TTITLE15=SOMEONE LOVES YOU HONEY
TTITLE16=A MAN TO BE ON MY MIND
TTITLE17=SPEAK YOUR MIND
EXTD=
EXTT0=
EXTT1=
EXTT2=
EXTT3=
EXTT4=
EXTT5=
EXTT6=
EXTT7=
EXTT8=
EXTT9=
EXTT10=
EXTT11=
EXTT12=
EXTT13=
EXTT14=
EXTT15=
EXTT16=
EXTT17=
PLAYORDER=
